<svg xmlns="http://www.w3.org/2000/svg" viewBox="0 0 760 2400" fill="none">
  <defs>
    <linearGradient id="bg" x1="0" y1="0" x2="760" y2="2400" gradientUnits="userSpaceOnUse">
      <stop offset="0" stop-color="#faf6ee" />
      <stop offset="0.56" stop-color="#f3eadb" />
      <stop offset="1" stop-color="#ece1cd" />
    </linearGradient>
    <radialGradient id="glow" cx="0" cy="0" r="1" gradientUnits="userSpaceOnUse" gradientTransform="translate(575 370) rotate(90) scale(360 270)">
      <stop offset="0" stop-color="#f8f3e7" stop-opacity="0.95" />
      <stop offset="1" stop-color="#f8f3e7" stop-opacity="0" />
    </radialGradient>
    <radialGradient id="glow2" cx="0" cy="0" r="1" gradientUnits="userSpaceOnUse" gradientTransform="translate(180 1420) rotate(90) scale(430 300)">
      <stop offset="0" stop-color="#dfe3cc" stop-opacity="0.88" />
      <stop offset="1" stop-color="#dfe3cc" stop-opacity="0" />
    </radialGradient>
  </defs>

  <rect width="760" height="2400" fill="url(#bg)" />
  <ellipse cx="590" cy="320" rx="210" ry="300" fill="url(#glow)" />
  <ellipse cx="180" cy="1360" rx="240" ry="390" fill="url(#glow2)" />
  <ellipse cx="610" cy="1890" rx="180" ry="250" fill="#e6dbc7" opacity="0.7" />
  <circle cx="510" cy="540" r="95" fill="none" stroke="#c8b68f" stroke-width="2.2" stroke-dasharray="8 13" opacity="0.5" />
  <circle cx="140" cy="1940" r="74" fill="none" stroke="#c1b28d" stroke-width="2" stroke-dasharray="6 10" opacity="0.38" />

  <path d="M88 152C156 377 203 592 186 819C171 1028 128 1200 156 1454C177 1645 172 1888 115 2260" stroke="#8a9066" stroke-width="6" stroke-linecap="round" opacity="0.78" />
  <path d="M160 240C192 348 231 439 277 512" stroke="#a89c74" stroke-width="3" stroke-linecap="round" opacity="0.62" />
  <path d="M140 738C180 823 224 893 275 947" stroke="#9b916f" stroke-width="3" stroke-linecap="round" opacity="0.62" />
  <path d="M120 1265C171 1345 222 1412 274 1470" stroke="#a89c74" stroke-width="3" stroke-linecap="round" opacity="0.6" />
  <path d="M108 1885C160 1960 211 2030 260 2082" stroke="#9d9474" stroke-width="3" stroke-linecap="round" opacity="0.58" />

  <g opacity="0.98" stroke-linecap="round" stroke-linejoin="round">
    <g transform="translate(184 268) rotate(-26)">
      <path d="M0 -58C28 -54 56 -28 58 0C56 28 28 54 0 58C-28 54 -56 28 -58 0C-56 -28 -28 -54 0 -58Z" fill="#7b8557" />
      <path d="M0 -44C3 -12 3 12 0 44" stroke="#f8f3ea" stroke-width="3" />
    </g>
    <g transform="translate(238 392) rotate(18) scale(0.82)">
      <path d="M0 -58C28 -54 56 -28 58 0C56 28 28 54 0 58C-28 54 -56 28 -58 0C-56 -28 -28 -54 0 -58Z" fill="#b9aa7a" />
      <path d="M0 -44C3 -12 3 12 0 44" stroke="#f8f3ea" stroke-width="3" />
    </g>
    <g transform="translate(156 558) rotate(-14) scale(1.05)">
      <path d="M0 -58C28 -54 56 -28 58 0C56 28 28 54 0 58C-28 54 -56 28 -58 0C-56 -28 -28 -54 0 -58Z" fill="#97a16b" />
      <path d="M0 -44C3 -12 3 12 0 44" stroke="#f8f3ea" stroke-width="3" />
    </g>
    <g transform="translate(255 832) rotate(24) scale(0.9)">
      <path d="M0 -58C28 -54 56 -28 58 0C56 28 28 54 0 58C-28 54 -56 28 -58 0C-56 -28 -28 -54 0 -58Z" fill="#7d865e" />
      <path d="M0 -44C3 -12 3 12 0 44" stroke="#f8f3ea" stroke-width="3" />
    </g>
    <g transform="translate(177 1030) rotate(-28) scale(0.77)">
      <path d="M0 -58C28 -54 56 -28 58 0C56 28 28 54 0 58C-28 54 -56 28 -58 0C-56 -28 -28 -54 0 -58Z" fill="#b7a87a" />
      <path d="M0 -44C3 -12 3 12 0 44" stroke="#f8f3ea" stroke-width="3" />
    </g>
    <g transform="translate(104 1268) rotate(16) scale(1.02)">
      <path d="M0 -58C28 -54 56 -28 58 0C56 28 28 54 0 58C-28 54 -56 28 -58 0C-56 -28 -28 -54 0 -58Z" fill="#899166" />
      <path d="M0 -44C3 -12 3 12 0 44" stroke="#f8f3ea" stroke-width="3" />
    </g>
    <g transform="translate(242 1492) rotate(-18) scale(0.86)">
      <path d="M0 -58C28 -54 56 -28 58 0C56 28 28 54 0 58C-28 54 -56 28 -58 0C-56 -28 -28 -54 0 -58Z" fill="#d0c39d" />
      <path d="M0 -44C3 -12 3 12 0 44" stroke="#f8f3ea" stroke-width="3" />
    </g>
    <g transform="translate(146 1714) rotate(20) scale(1)">
      <path d="M0 -58C28 -54 56 -28 58 0C56 28 28 54 0 58C-28 54 -56 28 -58 0C-56 -28 -28 -54 0 -58Z" fill="#7d8660" />
      <path d="M0 -44C3 -12 3 12 0 44" stroke="#f8f3ea" stroke-width="3" />
    </g>
    <g transform="translate(96 1998) rotate(-14) scale(0.84)">
      <path d="M0 -58C28 -54 56 -28 58 0C56 28 28 54 0 58C-28 54 -56 28 -58 0C-56 -28 -28 -54 0 -58Z" fill="#a6af79" />
      <path d="M0 -44C3 -12 3 12 0 44" stroke="#f8f3ea" stroke-width="3" />
    </g>
  </g>

  <g opacity="0.55">
    <path d="M585 178C618 188 641 221 640 256C604 243 578 221 564 189C570 181 577 178 585 178Z" fill="#d5c49f" />
    <path d="M558 665C587 676 608 703 611 732C579 723 552 706 536 679C542 671 550 666 558 665Z" fill="#c8b894" />
    <path d="M566 1168C599 1180 621 1211 619 1247C586 1237 558 1218 545 1187C551 1178 558 1172 566 1168Z" fill="#d7c8a7" />
    <path d="M585 1710C620 1722 644 1755 644 1792C608 1781 581 1760 566 1727C572 1718 577 1712 585 1710Z" fill="#c6b894" />
    <path d="M86 410C113 418 133 442 138 470C109 463 88 446 73 421C77 415 81 411 86 410Z" fill="#c2b58f" opacity="0.85" />
    <path d="M78 1460C107 1470 127 1496 129 1527C100 1518 79 1500 64 1472C69 1465 73 1461 78 1460Z" fill="#d6c9aa" opacity="0.8" />
  </g>
</svg>
