<svg width="720" height="840" viewBox="0 0 720 840" fill="none" xmlns="http://www.w3.org/2000/svg">
  <rect width="720" height="840" rx="48" fill="#F4EBDD"/>
  <circle cx="360" cy="258" r="124" fill="#E2CDAF"/>
  <path d="M228 674C228 562.439 318.439 472 430 472H290C401.561 472 492 562.439 492 674V744H228V674Z" fill="#C79C69"/>
  <path d="M292 272C292 234.445 322.445 204 360 204C397.555 204 428 234.445 428 272V328C428 365.555 397.555 396 360 396C322.445 396 292 365.555 292 328V272Z" fill="#F4D8B4"/>
  <path d="M261 246C261 184.144 311.144 134 373 134C434.856 134 485 184.144 485 246V274C466.528 248.682 438.647 228.857 404 218L365 206L338 239L308 210L289 246L261 274V246Z" fill="#3E352E"/>
  <path d="M235 742C235 627.125 328.125 534 443 534H480C594.875 534 688 627.125 688 742V780H235V742Z" fill="#2F7667" fill-opacity="0.14"/>
  <path d="M143 677C143 640.549 172.549 611 209 611C245.451 611 275 640.549 275 677V713H143V677Z" fill="#2F7667"/>
  <circle cx="176" cy="577" r="34" fill="#2F7667"/>
  <circle cx="242" cy="581" r="34" fill="#2F7667"/>
  <circle cx="209" cy="538" r="33" fill="#2F7667"/>
  <circle cx="161" cy="632" r="27" fill="#2F7667"/>
  <circle cx="257" cy="632" r="27" fill="#2F7667"/>
</svg>
