<svg xmlns="http://www.w3.org/2000/svg" viewBox="0 0 64 64">
  <rect width="64" height="64" rx="16" fill="#0A5C36" />
  <path d="M18 34c0-9 5.8-15 14-15s14 6 14 15" fill="none" stroke="#F8F4EB" stroke-width="4" stroke-linecap="round" />
  <path d="M24 21l-5-6m21 6 5-6" fill="none" stroke="#F8F4EB" stroke-width="4" stroke-linecap="round" />
  <circle cx="27" cy="31" r="2.3" fill="#F8F4EB" />
  <circle cx="37" cy="31" r="2.3" fill="#F8F4EB" />
  <path d="M29 38c2.2 1.6 3.8 1.6 6 0" fill="none" stroke="#F8F4EB" stroke-width="4" stroke-linecap="round" />
  <path d="M46 18c3 0 6 2.2 6 5.7 0 6.8-10 11.9-10 11.9S32 30.5 32 23.7C32 20.2 35 18 38 18c1.8 0 3.4.8 4.4 2.2C43.6 18.8 44.9 18 46 18Z" fill="#FF6B00" />
</svg>
